HIERARCHY
ROOT Hips
{
	OFFSET -14.64140 90.27770 -84.91600
	CHANNELS 6 Xposition Yposition Zposition Zrotation Xrotation Yrotation
	JOINT Spine
	{
		OFFSET 0.00000 13.20850 -1.60436
		CHANNELS 3 Zrotation Xrotation Yrotation
		JOINT Spine1
		{
			OFFSET 0.00000 8.61716 0.00000
			CHANNELS 3 Zrotation Xrotation Yrotation
			JOINT Spine2
			{
				OFFSET 0.00000 8.61717 0.00000
				CHANNELS 3 Zrotation Xrotation Yrotation
				JOINT Spine3
				{
					OFFSET 0.00000 8.61717 0.00000
					CHANNELS 3 Zrotation Xrotation Yrotation
					JOINT Neck
					{
						OFFSET 0.00000 11.07920 1.10792
						CHANNELS 3 Zrotation Xrotation Yrotation
						JOINT Neck1
						{
							OFFSET 0.00000 7.08032 0.00000
							CHANNELS 3 Zrotation Xrotation Yrotation
							JOINT Head
							{
								OFFSET 0.00000 7.08031 0.00000
								CHANNELS 3 Zrotation Xrotation Yrotation
								End site
								{
									OFFSET 0.00000 0.00000 0.00000
								}
							}
						}
					}
					JOINT RightShoulder
					{
						OFFSET -0.01000 7.91373 5.19711
						CHANNELS 3 Zrotation Xrotation Yrotation
						JOINT RightArm
						{
							OFFSET -18.41580 0.00000 0.00000
							CHANNELS 3 Zrotation Xrotation Yrotation
							JOINT RightForeArm
							{
								OFFSET -29.11090 0.00000 0.00000
								CHANNELS 3 Zrotation Xrotation Yrotation
								JOINT RightHand
								{
									OFFSET -24.65040 0.00000 0.00000
									CHANNELS 3 Zrotation Xrotation Yrotation
									JOINT RightHandThumb1
									{
										OFFSET -5.35114 -0.85590 3.97906
										CHANNELS 3 Zrotation Xrotation Yrotation
										JOINT RightHandThumb2
										{
											OFFSET -4.52789 0.00000 0.00000
											CHANNELS 3 Zrotation Xrotation Yrotation
											JOINT RightHandThumb3
											{
												OFFSET -2.46976 0.00000 0.00000
												CHANNELS 3 Zrotation Xrotation Yrotation
												End site
												{
													OFFSET 0.00000 0.00000 0.00000
												}
											}
										}
									}
									JOINT RightHandIndex1
									{
										OFFSET -14.26970 0.00000 2.88139
										CHANNELS 3 Zrotation Xrotation Yrotation
										JOINT RightHandIndex2
										{
											OFFSET -5.48836 0.00000 0.00000
											CHANNELS 3 Zrotation Xrotation Yrotation
											JOINT RightHandIndex3
											{
												OFFSET -3.01859 0.00000 0.00000
												CHANNELS 3 Zrotation Xrotation Yrotation
												End site
												{
													OFFSET 0.00000 0.00000 0.00000
												}
											}
										}
									}
									JOINT RightHandMiddle1
									{
										OFFSET -14.26970 0.00000 -0.09147
										CHANNELS 3 Zrotation Xrotation Yrotation
										JOINT RightHandMiddle2
										{
											OFFSET -6.17441 0.00000 0.00000
											CHANNELS 3 Zrotation Xrotation Yrotation
											JOINT RightHandMiddle3
											{
												OFFSET -3.56743 0.00000 0.00000
												CHANNELS 3 Zrotation Xrotation Yrotation
												End site
												{
													OFFSET 0.00000 0.00000 0.00000
												}
											}
										}
									}
									JOINT RightHandRing1
									{
										OFFSET -12.69180 0.00000 -3.06433
										CHANNELS 3 Zrotation Xrotation Yrotation
										JOINT RightHandRing2
										{
											OFFSET -5.62556 0.00000 0.00000
											CHANNELS 3 Zrotation Xrotation Yrotation
											JOINT RightHandRing3
											{
												OFFSET -3.56744 0.00000 0.00000
												CHANNELS 3 Zrotation Xrotation Yrotation
												End site
												{
													OFFSET 0.00000 0.00000 0.00000
												}
											}
										}
									}
									JOINT RightHandPinky1
									{
										OFFSET -11.11390 0.00000 -6.03719
										CHANNELS 3 Zrotation Xrotation Yrotation
										JOINT RightHandPinky2
										{
											OFFSET -4.52789 0.00000 0.00000
											CHANNELS 3 Zrotation Xrotation Yrotation
											JOINT RightHandPinky3
											{
												OFFSET -2.46976 0.00000 0.00000
												CHANNELS 3 Zrotation Xrotation Yrotation
												End site
												{
													OFFSET 0.00000 0.00000 0.00000
												}
											}
										}
									}
								}
							}
						}
					}
					JOINT LeftShoulder
					{
						OFFSET 0.01000 7.91373 5.19711
						CHANNELS 3 Zrotation Xrotation Yrotation
						JOINT LeftArm
						{
							OFFSET 18.41580 0.00000 0.00000
							CHANNELS 3 Zrotation Xrotation Yrotation
							JOINT LeftForeArm
							{
								OFFSET 29.11090 0.00000 0.00000
								CHANNELS 3 Zrotation Xrotation Yrotation
								JOINT LeftHand
								{
									OFFSET 24.65040 0.00000 0.00000
									CHANNELS 3 Zrotation Xrotation Yrotation
									JOINT LeftHandThumb1
									{
										OFFSET 5.35114 -0.85590 3.97906
										CHANNELS 3 Zrotation Xrotation Yrotation
										JOINT LeftHandThumb2
										{
											OFFSET 4.52789 0.00000 0.00000
											CHANNELS 3 Zrotation Xrotation Yrotation
											JOINT LeftHandThumb3
											{
												OFFSET 2.46977 0.00000 0.00000
												CHANNELS 3 Zrotation Xrotation Yrotation
												End site
												{
													OFFSET 0.00000 0.00000 0.00000
												}
											}
										}
									}
									JOINT LeftHandIndex1
									{
										OFFSET 14.26970 0.00000 2.88139
										CHANNELS 3 Zrotation Xrotation Yrotation
										JOINT LeftHandIndex2
										{
											OFFSET 5.48836 0.00000 0.00000
											CHANNELS 3 Zrotation Xrotation Yrotation
											JOINT LeftHandIndex3
											{
												OFFSET 3.01859 0.00000 0.00000
												CHANNELS 3 Zrotation Xrotation Yrotation
												End site
												{
													OFFSET 0.00000 0.00000 0.00000
												}
											}
										}
									}
									JOINT LeftHandMiddle1
									{
										OFFSET 14.26970 0.00000 -0.09147
										CHANNELS 3 Zrotation Xrotation Yrotation
										JOINT LeftHandMiddle2
										{
											OFFSET 6.17440 0.00000 0.00000
											CHANNELS 3 Zrotation Xrotation Yrotation
											JOINT LeftHandMiddle3
											{
												OFFSET 3.56744 0.00000 0.00000
												CHANNELS 3 Zrotation Xrotation Yrotation
												End site
												{
													OFFSET 0.00000 0.00000 0.00000
												}
											}
										}
									}
									JOINT LeftHandRing1
									{
										OFFSET 12.69180 0.00000 -3.06433
										CHANNELS 3 Zrotation Xrotation Yrotation
										JOINT LeftHandRing2
										{
											OFFSET 5.62556 0.00000 0.00000
											CHANNELS 3 Zrotation Xrotation Yrotation
											JOINT LeftHandRing3
											{
												OFFSET 3.56744 0.00000 0.00000
												CHANNELS 3 Zrotation Xrotation Yrotation
												End site
												{
													OFFSET 0.00000 0.00000 0.00000
												}
											}
										}
									}
									JOINT LeftHandPinky1
									{
										OFFSET 11.11390 0.00000 -6.03719
										CHANNELS 3 Zrotation Xrotation Yrotation
										JOINT LeftHandPinky2
										{
											OFFSET 4.52789 0.00000 0.00000
											CHANNELS 3 Zrotation Xrotation Yrotation
											JOINT LeftHandPinky3
											{
												OFFSET 2.46976 0.00000 0.00000
												CHANNELS 3 Zrotation Xrotation Yrotation
												End site
												{
													OFFSET 0.00000 0.00000 0.00000
												}
											}
										}
									}
								}
							}
						}
					}
					JOINT pCube4
					{
						OFFSET 0.00000 10.91090 1.10792
						CHANNELS 3 Zrotation Xrotation Yrotation
						End site
						{
							OFFSET 0.00000 0.00000 0.00000
						}
					}
				}
			}
		}
	}
	JOINT RightUpLeg
	{
		OFFSET -9.98441 0.00000 0.00000
		CHANNELS 3 Zrotation Xrotation Yrotation
		JOINT RightLeg
		{
			OFFSET 0.00000 -42.11790 0.00000
			CHANNELS 3 Zrotation Xrotation Yrotation
			JOINT RightFoot
			{
				OFFSET 0.00000 -45.00020 -0.00001
				CHANNELS 3 Zrotation Xrotation Yrotation
				JOINT RightForeFoot
				{
					OFFSET 0.00000 -3.74820 0.00000
					CHANNELS 3 Zrotation Xrotation Yrotation
					JOINT RightToeBase
					{
						OFFSET 0.00000 0.06325 14.43120
						CHANNELS 3 Zrotation Xrotation Yrotation
						End site
						{
							OFFSET 0.00000 0.00000 0.00000
						}
					}
				}
			}
		}
	}
	JOINT LeftUpLeg
	{
		OFFSET 9.98441 0.00000 0.00000
		CHANNELS 3 Zrotation Xrotation Yrotation
		JOINT LeftLeg
		{
			OFFSET 0.00000 -42.11800 0.00000
			CHANNELS 3 Zrotation Xrotation Yrotation
			JOINT LeftFoot
			{
				OFFSET 0.00000 -45.00070 0.00000
				CHANNELS 3 Zrotation Xrotation Yrotation
				JOINT LeftForeFoot
				{
					OFFSET 0.00000 -3.74824 0.00000
					CHANNELS 3 Zrotation Xrotation Yrotation
					JOINT LeftToeBase
					{
						OFFSET 0.00000 0.06325 14.43110
						CHANNELS 3 Zrotation Xrotation Yrotation
						End site
						{
							OFFSET 0.00000 0.00000 0.00000
						}
					}
				}
			}
		}
	}
}
MOTION
Frames: 4
Frame Time: 0.050000
0.010568774417547774 0.030050940103940715 -0.012877464023115385 0.004824147342269672 0.01733063361134366 -0.021785601938358448 4.807060143242328 1.9778544885594043 -2.2456447200564145 -0.7231004115033672 3.4242788955875065 0.45971984930824145 -0.9390202976761912 -1.5724385656031665 2.206907215338424 -1.0331620936338453 -0.8330087569111118 -0.02510601727366446 1.2488807383283238 13.82979598074389 -2.819938518573603 0.550376320059342 -0.5150044360878524 -6.671995179838025 1.661096668597613 -17.402278182142712 -0.6826815554800771 -15.468770308281188 4.705276447962917 -18.791565503992878 80.39006874752586 -12.290455792858985 38.98173682306081 3.3440919561086906 4.9350829990120255 103.60499928413444 19.97042149975282 -0.8845458481837115 -5.731094787751132 4.495535372942053 -0.15534779228044487 -1.578916975934163 -0.010963790330097058 -0.037444987801174875 -56.2790822569231 -0.025846218225880596 -0.027443575204928662 -56.225041643273336 -38.78841832106873 0.028770868655615307 0.006756605854576774 -0.008680487897161448 0.0011683083693185194 0.04661593581613841 -0.015404619386274033 -0.010655084460692943 0.037931817070622896 -36.665046130842704 -0.014193272490394005 -0.005615351535976932 -0.019681594120881118 -0.04981572235776061 -0.016647097616672997 -0.03118181245344668 0.03138610680007844 0.005840711346574929 -19.73936277968408 0.01107613939667701 -0.006585493600862555 0.037234558903184556 0.007411377647982536 0.010607380657778526 -0.04178185345292681 -0.016528965291615363 -0.01850567260671625 24.058350057804308 -0.003465377806622277 -0.005979916951084973 28.898278034481756 -0.005607845792574886 -0.03935275522508714 28.881552258667107 -0.03567901597128146 -0.04892609047846783 10.644334622745593 2.4443664001437004 14.768049612895917 -73.05999682284784 20.531380400361073 -11.462513597245069 -28.551769949597332 10.279790294495182 -86.33736719786242 -29.9897664196511 -11.497831015270183 9.152907672325561 -0.4343417096743164 0.06872453902761695 -8.0894791505091 0.046152987894632624 -0.027127511679294947 44.55073421026003 0.0287014246276853 0.011213661120035969 44.60384081952152 12.418646693963378 -0.0451790882373418 0.03313723635635977 -0.037783187436003625 -0.012160132607963838 0.006674285512188311 0.04709006301684061 -0.03811858298823934 -0.01907638756258205 11.088877400512075 0.016024756044785905 0.027313053727425027 0.002701828987536107 0.005946851066111452 0.0037498114863589553 0.017951812522202067 -0.024812402561672817 0.0039386592462031435 4.781087160164051 -0.02243145107151808 -0.023891231743731676 0.010119351954579976 0.015806891122072442 0.038914014169159496 -0.021202542754777697 -0.013012120675659907 -0.04687657854020406 -5.6007785093276565 0.042232357915016186 0.032166226558042674 -6.7335606892331255 0.0034943260166610357 0.030430865484952815 -6.7588952504331195 0.020563203105568535 0.03066983031157947 -0.004758453809868485 -0.016373430943173572 -0.03319140826006387 8.061181829449353 3.477263886750791 -19.250616925873295 -0.03544017648889114 10.375934588213594 -0.005985165947362613 -5.614284619241342 -15.64916420792399 3.155057969171536 0.019391887566036655 0.022962639495088925 -0.0012609001435318567 -0.031546354788808406 4.701452322165304 0.007023305307997278 12.435273093701422 -8.226144161057222 6.865736572191506 0.032446753246063255 46.33616214975959 0.02008816531678603 -4.36543044749837 -14.750199241009845 -3.848472535659977 -0.04291431965271623 -0.044074303238147386 0.032713412252746425 0.01691750918073228 -10.740152084000705 -0.04250183144064097 
0.03308697462324172 0.004475988975583923 -0.031218346725765473 -0.042306710192673215 0.04337578627944199 -0.03592074378979908 4.625428436063471 2.160640198753311 -2.174954864382652 -0.7063867835444936 3.4583543111741015 0.4036750882617809 -0.8935184554906936 -1.5815277708307378 2.0055190087574593 -0.949440991400519 -0.726171007780172 -0.130463420360126 1.225111952166632 13.637896474532749 -2.770436023284132 0.44593623288913226 -0.6149808626889183 -6.8474763283556985 1.5224802884906548 -17.470088276983788 -0.6226595171375766 -14.750614936402133 4.597633672958593 -18.43931728614118 77.65734921674034 -10.841419153155073 37.46795075016916 4.348846045947667 4.529613413002378 102.54166377744504 20.86182215414164 -0.8378355408786862 -5.985262740917609 4.573168245731808 -0.12020655834940826 -1.5913110854981676 0.006978234599709615 -0.003378828713749053 -56.21032939468613 -0.00823732258912852 -0.04974783952162895 -56.26297991104172 -38.7598403938803 -0.024594396357314734 0.03535817470949809 0.005553228330344855 0.010502992628193045 0.022973904111066628 -0.03699413993680873 0.006415415831067613 0.027859227152487467 -36.708982686122575 0.007797946924004516 -0.000991561107046308 -0.03839900772686987 0.027725065749102135 -0.049273349541523896 -0.02987534487625782 0.032844605640687474 -0.03440568631984154 -19.757433971831013 0.009432749980651823 0.007133232438050375 -0.016567099757891255 -0.03737308751093121 -0.04059593163237636 -0.003786086996041676 0.034810623668205025 0.023217851253549228 24.08968107858294 -0.006382931167445133 0.0203508773352709 28.85000708381239 0.0036156989945514244 -0.029538941009639882 28.867343410239847 0.005539815923395857 -0.017699099531821406 10.30603825233562 2.407167115118037 14.636290671246993 -71.96262791097801 20.77790644787788 -11.767701039616808 -26.930447085204076 8.869783652342358 -87.77089561251815 -29.293796723261632 -11.009374326025334 8.648307773092775 -0.5010552689034085 0.027004781772042276 -8.132500738976768 -0.03648905227339785 -0.002527318563888981 44.58350063546917 0.01825535585224615 -0.020443299241911603 44.52277692746714 12.494854476728309 -0.0032720931908188635 -0.00243052759712467 0.02425508542321666 -0.017665711836666282 -0.03249313920396097 0.04575591282717839 0.013111076104536505 -0.004266469039135138 11.09842269051518 0.0017515331421768159 0.013783509517785512 0.01207055148011915 -0.04337277188857977 -0.005327769969340569 0.007198745641048621 -0.03322524236900499 0.03956183389566356 4.791703946787231 -0.006804643235486256 -0.02173908930375643 -0.020200511926752502 0.019053895741050965 0.004593778325011206 0.008219884133211555 -0.04756462988969588 -0.013838764248718794 -5.578330748258345 -0.010798798580233276 -0.04042709541365288 -6.733947080183094 0.016960964650319856 0.027726278167302457 -6.724244211973002 0.044851582551777715 0.03902347063271838 -0.023835515778883487 0.0239485705100721 0.0003092792177894937 8.01149292079471 3.4974000428424246 -19.199693733570157 0.026095980305695852 10.420867467708954 -0.01754490182009834 -5.604885304901079 -15.703867143003787 3.204799335516442 -0.0037779441218790248 0.02835854501406596 0.03199315381576386 0.01322677571585093 4.686694441004823 0.04004234112188224 12.419803679740072 -8.197252612545425 6.917549347657476 -0.04892361030158689 46.36382200613872 0.027618301839926127 -4.32127050844327 -14.702600474203196 -3.8689584184015673 -0.01892462079458966 -0.0001757116683632727 -0.024569428298491906 0.027753609777017137 -10.719528746245729 0.037984134258519486 
-0.001612595035493427 0.039339459536936114 0.010971527564423633 0.001928539052135309 0.030967207423953202 0.027070713779046962 4.406569528291604 2.3379945890991536 -2.103228245573768 -0.7328323242171325 3.4278871357398204 0.41610141302446546 -0.8701669942264664 -1.4446572641291846 1.996944602853171 -0.8696812872140915 -0.7014169864764748 -0.12557669454646425 1.036910260882232 13.191233896259535 -2.745847367943113 0.40523028084505075 -0.7308660881013137 -6.961924368266754 1.5262733690751698 -17.519870628633328 -0.6612730345932265 -13.844826739877393 4.32790640219523 -18.029548242402118 74.72226025222034 -8.371987616692836 35.15155112602033 4.792043288468517 3.7910041996460615 101.85824694860106 21.47142357063624 -0.7779835300414881 -6.191097412035509 4.546655248978218 -0.14227598425047364 -1.6391213021798432 0.02479426956083591 -0.04893247636131544 -56.26746841480481 -0.011234504587394835 -0.02970754853955662 -56.20960916843472 -38.81954219407113 -0.04672541798625795 -0.008893631095478985 0.03627867067967115 -0.02100609063277673 0.030843017942613918 0.025195536522281924 -0.027263968477335084 0.015436135039691185 -36.727968945492506 0.012591031166087854 0.02863242578219422 -0.009192385135442767 0.04170949137576431 0.04723008254061558 0.04288173462458062 0.014547470655725708 0.029819451000833164 -19.724647706217596 0.016679311344455865 -0.036601376696747914 -0.0012800638543863868 0.038480989605656234 0.004622604236311611 0.023109927383454437 -0.0027163290887415384 -0.008034650046481078 24.018103763434972 -0.005458887877602041 -0.03440907736814032 28.89535636909743 -0.007075223119521156 0.008073084068818707 28.892282318977802 -0.042390898800803475 -0.035367664933497744 9.68277959916735 2.3187624656519596 14.535319669470319 -71.05393643997705 20.807006437641853 -11.676644382917758 -25.584369683602763 7.872947765989445 -88.22105494773974 -28.517624786581543 -10.326582284748058 7.957832989434036 -0.46343158822047575 0.10662897894941996 -8.11011727800816 0.018636660039186105 0.024745434764060447 44.57161031746336 -0.04294756652134812 -0.004931665679182051 44.59270124155759 12.468884940062232 -0.0037959684141376957 0.015270859949116106 -0.0068485356492261505 0.0032731741778074795 0.006002026391538786 -0.004137668113540842 0.017340019413599687 -0.01908216163402408 11.104102436878186 0.010440775754437779 0.0034119367377489743 -0.014294190832090837 0.01396428682608011 0.039992394180265484 -0.020820937582765618 -0.007840760157226219 0.017086097355389004 4.770775244586299 0.025918633276242085 -0.04698029788294732 -0.021497504115319366 -0.016727326133316456 0.036763081473787956 -0.04019746642668916 0.01578507458702437 0.02097005661277279 -5.609961993087008 -0.01436117707468469 -0.025366198916855265 -6.725223898662275 -0.02459637018506454 -0.024824124359327324 -6.686442257677508 -0.011154712986334522 0.014890305939739152 0.043996496292700735 0.04897677020287836 0.03644209901802242 8.050957827035061 3.4678456394829005 -19.196172937296566 0.038218262570206045 10.345033333604132 -0.009218547757497881 -5.608160981713372 -15.618534538309286 3.1881245440485886 0.017724214032394166 0.017231951296870798 0.0015841923940052348 -0.04051815852758328 4.711492093955368 0.0233474809192987 12.458698325674092 -8.280753674349107 6.9010822413944535 -0.00834358681925125 46.337713489923345 -0.027691524080429446 -4.336727833039658 -14.722597821250112 -3.8480190978358753 0.04132836892327738 -0.03845717644850207 0.0022952939600308364 -0.009262902911426197 -10.711313654586746 -0.047574771128063034 
-0.02166115699913682 0.029072819101354466 -8.037842309409949e-05 0.00825531321619792 0.0031156960419624347 0.01184705648897983 4.205768270616732 2.5859767170529664 -2.0674900686400006 -0.7341914455443861 3.514399542504989 0.4133657745155615 -0.8452342406302691 -1.4198275518843853 1.8590826154262274 -0.7821781555053695 -0.6993070863469039 -0.13446123493048126 0.9009151464366724 12.67302610368179 -2.6347043489663955 0.3261970430285166 -0.8126447239313804 -6.998310636328819 1.3370847830531067 -17.52355406249326 -0.6430870429144765 -12.673060331404107 4.062862197323267 -17.586176474804674 71.50817876495435 -5.449072409002906 32.051976547284916 4.321834170500289 2.6425900927966213 101.41873313630299 22.148376476662342 -0.6944057100236111 -6.295802120318437 4.558034236556484 -0.15705522812681916 -1.5815290195606784 0.03376119948413423 0.030234874746413194 -56.19860221632036 0.012987733717160188 -0.04702302989725225 -56.24489062454508 -38.795609735270034 -0.045868281458680715 0.042551068737401485 0.0010208966775289007 0.03749539318256655 -0.007539547736452337 0.013813920715293372 0.008061101987825803 0.029456232325607585 -36.715941976820226 -0.011521111607868872 0.011512721054266586 -0.0186342193538276 -0.02927706075467321 -0.016697833200381342 0.039325131784949695 -0.04502724133920209 -0.03282498722477616 -19.74671464919372 0.010546880195063352 0.04166715127763407 0.015502937019787237 0.018455078928443242 -0.016450385069134994 0.044881258904099976 0.02594882555053525 0.02048528500977357 24.039825008482744 -0.012983044873055705 -0.009270331675040685 28.879886510424754 -0.030681992598632083 -0.037193010970002584 28.89857800814573 -0.0475027767926939 -0.04954801846616322 9.183710983464549 2.2576420539858986 14.414575432123343 -70.12595362772262 20.16076665769676 -11.461112496760334 -24.624196814153525 7.180793077835616 -88.76900602593722 -28.093423632391378 -9.869709624540441 7.355918942240146 -0.4711733088011637 0.07688305165009861 -8.171021108139664 0.048401528818303625 -0.0014250490849029183 44.53199922586128 -0.027660872035749663 -0.021754636415190882 44.558080032207364 12.45295626926433 0.0183560429838933 0.02996646831013385 -0.020705904212743632 -0.02651469377062274 0.020107959767336318 -0.004272667100357132 0.0276106069420926 0.015510883096406837 11.148622756076705 0.04541075131032226 0.004167535956639248 0.002629465681603911 -0.04361647433370934 -0.004650286205226782 0.016845489017957748 -0.005339275170859317 0.048027304965653966 4.757456431603048 0.040511215638333174 -0.0005842640744587656 0.040831913071087474 -0.002746015250350735 0.043070558783204364 -0.014441545109792724 -0.03363461750623025 -0.03182267280579771 -5.609946420577341 0.0024184796146759185 0.025494054876480734 -6.717717605699163 0.032300635814607105 -0.004928822475940064 -6.733014882918442 0.03065870941648049 -0.02100825614776436 0.04321118263219058 -0.0074482696350207 -0.02309414855279644 8.01010391595215 3.489331897485885 -19.25371589840335 0.005386035222275656 10.425407114411756 0.027498871982668 -5.620036603963594 -15.672154113054484 3.220894920393097 -0.04331031137340896 -0.011139237116839468 0.04135005149073976 0.029324558530394076 4.731352249736653 0.032428640375844024 12.470998110353356 -8.28063777220643 6.861590893104704 -0.03378223449775727 46.42381104393102 -0.01835297651587478 -4.312513573806598 -14.752237528245546 -3.8378089458088596 -0.030498508895873817 -0.04302777209800656 -0.009982365777468912 0.011646015209700886 -10.772340815261746 -0.036979545594833955 
